<?xml version="1.0" encoding="UTF-8" standalone="no"?>
<svg viewBox="0 0 16 16" version="1.1" xmlns="http://www.w3.org/2000/svg">
  <g fill="#ffffff">
    <rect x="7.3" y="0.8" width="1.4" height="2.6" transform="rotate(0 8 8)"/>
    <rect x="7.3" y="0.8" width="1.4" height="2.6" transform="rotate(45 8 8)"/>
    <rect x="7.3" y="0.8" width="1.4" height="2.6" transform="rotate(90 8 8)"/>
    <rect x="7.3" y="0.8" width="1.4" height="2.6" transform="rotate(135 8 8)"/>
    <rect x="7.3" y="0.8" width="1.4" height="2.6" transform="rotate(180 8 8)"/>
    <rect x="7.3" y="0.8" width="1.4" height="2.6" transform="rotate(225 8 8)"/>
    <rect x="7.3" y="0.8" width="1.4" height="2.6" transform="rotate(270 8 8)"/>
    <rect x="7.3" y="0.8" width="1.4" height="2.6" transform="rotate(315 8 8)"/>
    <path fill-rule="evenodd" d="M8 3.2a4.8 4.8 0 1 0 0 9.6 4.8 4.8 0 0 0 0-9.6zm0 2.6a2.2 2.2 0 1 1 0 4.4 2.2 2.2 0 0 1 0-4.4z"/>
  </g>
</svg>
